<svg width="93" height="93" viewBox="0 0 93 93" fill="none" xmlns="http://www.w3.org/2000/svg">
<circle cx="46.0318" cy="46.0318" r="46.0318" fill="#F6A34B"/>
<path fill-rule="evenodd" clip-rule="evenodd" d="M73.4207 83.0323C84.7321 74.6454 92.0636 61.1948 92.0636 46.0318C92.0636 20.6091 71.4544 0 46.0318 0C20.6091 0 0 20.6091 0 46.0318C0 61.1948 7.33144 74.6455 18.6429 83.0323V79.6495C17.4691 78.2928 16.5235 76.7834 15.8062 75.1214C15.0888 73.4594 14.7302 71.6448 14.7302 69.6776V31.0109C14.7302 25.3804 17.2408 21.2594 22.2621 18.6477C27.2834 16.036 35.2066 14.7301 46.0318 14.7301C57.2482 14.7301 65.2692 15.9851 70.0949 18.4951C74.9206 21.005 77.3334 25.1769 77.3334 31.0109V69.6776C77.3334 71.6448 76.9747 73.4594 76.2574 75.1214C75.5401 76.7834 74.5945 78.2928 73.4207 79.6495V83.0323ZM61.8576 89.2709C61.7409 88.8741 61.6826 88.4482 61.6826 87.9934V83.9232H30.381V87.9934C30.381 88.4482 30.3226 88.8741 30.206 89.2709C35.1408 91.0776 40.4711 92.0636 46.0318 92.0636C51.5924 92.0636 56.9228 91.0776 61.8576 89.2709ZM69.508 35.081V47.2916H22.5556V35.081H69.508ZM36.4946 69.9319C35.3534 71.1191 33.9676 71.7126 32.3373 71.7126C30.707 71.7126 29.3213 71.1191 28.1801 69.9319C27.0389 68.7448 26.4683 67.3033 26.4683 65.6074C26.4683 63.9115 27.0389 62.4699 28.1801 61.2828C29.3213 60.0957 30.707 59.5021 32.3373 59.5021C33.9676 59.5021 35.3534 60.0957 36.4946 61.2828C37.6358 62.4699 38.2064 63.9115 38.2064 65.6074C38.2064 67.3033 37.6358 68.7448 36.4946 69.9319ZM63.8835 69.9319C62.7423 71.1191 61.3565 71.7126 59.7262 71.7126C58.096 71.7126 56.7102 71.1191 55.569 69.9319C54.4278 68.7448 53.8572 67.3033 53.8572 65.6074C53.8572 63.9115 54.4278 62.4699 55.569 61.2828C56.7102 60.0957 58.096 59.5021 59.7262 59.5021C61.3565 59.5021 62.7423 60.0957 63.8835 61.2828C65.0247 62.4699 65.5953 63.9115 65.5953 65.6074C65.5953 67.3033 65.0247 68.7448 63.8835 69.9319ZM61.8293 24.0407C65.0573 24.8208 67.1604 25.7875 68.1385 26.9407H24.3163C25.4901 25.9231 27.691 24.9904 30.919 24.1424C34.147 23.2945 39.2498 22.8705 46.2274 22.8705C53.4007 22.8705 58.6013 23.2606 61.8293 24.0407ZM61.6826 75.7828H30.381C28.229 75.7828 26.3868 74.9857 24.8543 73.3916C23.3218 71.7974 22.5556 69.8811 22.5556 67.6425V55.4319H69.508V67.6425C69.508 69.8811 68.7418 71.7974 67.2093 73.3916C65.6768 74.9857 63.8346 75.7828 61.6826 75.7828Z" fill="#1E9A92"/>
</svg>
